<?xml version="1.0" encoding="utf-8"?>
<!-- Generator: Adobe Illustrator 17.1.0, SVG Export Plug-In . SVG Version: 6.00 Build 0)  -->
<!DOCTYPE svg PUBLIC "-//W3C//DTD SVG 1.1//EN" "http://www.w3.org/Graphics/SVG/1.1/DTD/svg11.dtd">
<svg version="1.1" id="portfolio-suitcase" xmlns="http://www.w3.org/2000/svg" xmlns:xlink="http://www.w3.org/1999/xlink" x="0px"
	 y="0px" viewBox="0 0 1009.9766 1009.9287" enable-background="new 0 0 1009.9766 1009.9287" xml:space="preserve">
<g id="portfolio-suitcase-label">
	<path fill="#CEB2EA" d="M504.9766,0C226.0957,0,0,226.1192,0,504.9756c0,278.8926,226.0957,504.9531,504.9766,504.9531
		c278.8799,0,505-226.0605,505-504.9531C1009.9766,226.1192,783.8565,0,504.9766,0z"/>
</g>
<g id="portfolio-suitcase-portfolio-suitcase">
	<path fill="#FFFFFF" d="M525.3438,519.2412v-28.9126c0-11.2387-9.1172-20.3559-20.3555-20.3559
		c-11.251,0-20.3682,9.1172-20.3682,20.3559v28.9126c0,11.2393,9.1172,20.3682,20.3682,20.3682
		C516.2266,539.6094,525.3438,530.4805,525.3438,519.2412z"/>
	<path fill="#FFFFFF" d="M538.4776,513.9854h0.0117c-0.0117,18.5215-4.9219,38.7578-33.501,38.7578
		c-29.2227,0-33.5015-20.2607-33.5015-38.7578v-3.2891H230.3985V684.127c0,43.3574,35.4677,78.8252,78.8252,78.8252h391.5292
		c43.3458,0,78.8252-35.4678,78.8252-78.8252V510.6963H538.4776V513.9854z"/>
	<path fill="#FFFFFF" d="M700.7529,342.522H309.2237c-43.3575,0-78.8252,35.48-78.8252,78.8374v73.5693h241.1123
		c0.3691-18.1865,4.8984-38.1015,33.4775-38.1015c28.5791,0,33.0957,19.915,33.4658,38.1015h241.124v-73.5693
		C779.5781,378.002,744.0987,342.522,700.7529,342.522z"/>
	<path fill="#FFFFFF" d="M389.4673,330.9258l22.0244,5.8164c6.0781,1.5967,12.3111-2.0381,13.9082-8.1162
		c0.2388-0.8818,0.3335-1.7642,0.3579-2.6338c12.1919-31.9643,42.9756-54.7041,79.2305-54.7637
		c36.2539,0.0596,67.0391,22.7994,79.2305,54.7637c0.0234,0.8696,0.1191,1.752,0.3574,2.6338
		c1.5976,6.0781,7.8301,9.7129,13.8965,8.1162l22.0244-5.8164c6.0781-1.5849,9.7129-7.8301,8.1162-13.9082
		c-1.6094-6.0781-7.8301-9.7129-13.9199-8.1162l-10.0469,2.6582c-17.0781-38.0664-55.2402-64.584-99.6582-64.5957
		c-44.4185,0.0117-82.5918,26.5293-99.6699,64.5957l-10.0352-2.6582c-6.0898-1.5967-12.3115,2.0381-13.9199,8.1162
		C379.7661,323.0957,383.3892,329.3409,389.4673,330.9258z"/>
</g>
</svg>
