<svg width="1010" height="1010" viewBox="0 0 1010 1010" fill="none" xmlns="http://www.w3.org/2000/svg">
<g clip-path="url(#clip0_102_2)">
<path d="M504.977 0C226.096 0 0 226.119 0 504.976C0 783.868 226.096 1009.93 504.977 1009.93C783.857 1009.93 1009.98 783.868 1009.98 504.976C1009.98 226.119 783.857 0 504.977 0Z" fill="#F15A94"/>
<path d="M525.344 519.241V490.329C525.344 479.09 516.227 469.973 504.988 469.973C493.737 469.973 484.62 479.09 484.62 490.329V519.241C484.62 530.48 493.737 539.609 504.988 539.609C516.227 539.609 525.344 530.48 525.344 519.241Z" fill="white"/>
<path d="M538.478 513.985H538.489C538.478 532.507 533.567 552.743 504.988 552.743C475.766 552.743 471.487 532.483 471.487 513.985V510.696H230.398V684.127C230.398 727.484 265.866 762.952 309.224 762.952H700.753C744.099 762.952 779.578 727.484 779.578 684.127V510.696H538.478V513.985Z" fill="white"/>
<path d="M700.753 342.522H309.224C265.866 342.522 230.398 378.002 230.398 421.359V494.929H471.511C471.88 476.742 476.409 456.827 504.988 456.827C533.567 456.827 538.084 476.742 538.454 494.929H779.578V421.359C779.578 378.002 744.099 342.522 700.753 342.522Z" fill="white"/>
<path d="M389.467 330.926L411.492 336.742C417.57 338.339 423.803 334.704 425.4 328.626C425.639 327.744 425.733 326.862 425.758 325.992C437.95 294.028 468.733 271.288 504.988 271.228C541.242 271.288 572.027 294.028 584.219 325.992C584.242 326.862 584.338 327.744 584.576 328.626C586.174 334.704 592.406 338.339 598.473 336.742L620.497 330.926C626.575 329.341 630.21 323.096 628.613 317.018C627.004 310.939 620.783 307.305 614.693 308.901L604.646 311.56C587.568 273.493 549.406 246.976 504.988 246.964C460.57 246.976 422.396 273.493 405.318 311.56L395.283 308.901C389.193 307.305 382.972 310.939 381.363 317.018C379.766 323.096 383.389 329.341 389.467 330.926Z" fill="white"/>
</g>
<defs>
<clipPath id="clip0_102_2">
<rect width="1009.98" height="1009.93" fill="white"/>
</clipPath>
</defs>
</svg>
