<svg width="170" height="105" viewBox="0 0 170 105" fill="none" xmlns="http://www.w3.org/2000/svg">
<path d="M40.248 57.776V73H38.246V61.648L33.186 73H31.778L26.696 61.626V73H24.694V57.776H26.85L32.482 70.36L38.114 57.776H40.248ZM48.7605 66.928C48.7605 65.696 49.0098 64.618 49.5085 63.694C50.0071 62.7553 50.6891 62.0293 51.5545 61.516C52.4345 61.0027 53.4098 60.746 54.4805 60.746C55.5365 60.746 56.4531 60.9733 57.2305 61.428C58.0078 61.8827 58.5871 62.4547 58.9685 63.144V60.944H60.9925V73H58.9685V70.756C58.5725 71.46 57.9785 72.0467 57.1865 72.516C56.4091 72.9707 55.4998 73.198 54.4585 73.198C53.3878 73.198 52.4198 72.934 51.5545 72.406C50.6891 71.878 50.0071 71.1373 49.5085 70.184C49.0098 69.2307 48.7605 68.1453 48.7605 66.928ZM58.9685 66.95C58.9685 66.0407 58.7851 65.2487 58.4185 64.574C58.0518 63.8993 57.5531 63.386 56.9225 63.034C56.3065 62.6673 55.6245 62.484 54.8765 62.484C54.1285 62.484 53.4465 62.66 52.8305 63.012C52.2145 63.364 51.7231 63.8773 51.3565 64.552C50.9898 65.2267 50.8065 66.0187 50.8065 66.928C50.8065 67.852 50.9898 68.6587 51.3565 69.348C51.7231 70.0227 52.2145 70.5433 52.8305 70.91C53.4465 71.262 54.1285 71.438 54.8765 71.438C55.6245 71.438 56.3065 71.262 56.9225 70.91C57.5531 70.5433 58.0518 70.0227 58.4185 69.348C58.7851 68.6587 58.9685 67.8593 58.9685 66.95ZM72.2429 62.902C72.5949 62.2127 73.0935 61.6773 73.7389 61.296C74.3989 60.9147 75.1982 60.724 76.1369 60.724V62.792H75.6089C73.3649 62.792 72.2429 64.0093 72.2429 66.444V73H70.2409V60.944H72.2429V62.902ZM85.3471 58.986C84.9658 58.986 84.6431 58.854 84.3791 58.59C84.1151 58.326 83.9831 58.0033 83.9831 57.622C83.9831 57.2407 84.1151 56.918 84.3791 56.654C84.6431 56.39 84.9658 56.258 85.3471 56.258C85.7138 56.258 86.0218 56.39 86.2711 56.654C86.5351 56.918 86.6671 57.2407 86.6671 57.622C86.6671 58.0033 86.5351 58.326 86.2711 58.59C86.0218 58.854 85.7138 58.986 85.3471 58.986ZM86.3151 60.944V73H84.3131V60.944H86.3151ZM101.466 60.724C102.933 60.724 104.121 61.1713 105.03 62.066C105.94 62.946 106.394 64.222 106.394 65.894V73H104.414V66.18C104.414 64.9773 104.114 64.0607 103.512 63.43C102.911 62.7847 102.09 62.462 101.048 62.462C99.9924 62.462 99.1491 62.792 98.5184 63.452C97.9024 64.112 97.5944 65.0727 97.5944 66.334V73H95.5924V60.944H97.5944V62.66C97.9904 62.044 98.5258 61.5673 99.2004 61.23C99.8898 60.8927 100.645 60.724 101.466 60.724ZM121.514 60.724C122.423 60.724 123.245 60.922 123.978 61.318C124.711 61.6993 125.283 62.2787 125.694 63.056C126.119 63.8333 126.332 64.7793 126.332 65.894V73H124.352V66.18C124.352 64.9773 124.051 64.0607 123.45 63.43C122.849 62.7847 122.027 62.462 120.986 62.462C119.93 62.462 119.087 62.792 118.456 63.452C117.84 64.112 117.532 65.0727 117.532 66.334V73H115.53V56.72H117.532V62.66C117.928 62.044 118.471 61.5673 119.16 61.23C119.864 60.8927 120.649 60.724 121.514 60.724ZM140.725 73.198C139.596 73.198 138.569 72.9413 137.645 72.428C136.736 71.9147 136.017 71.1887 135.489 70.25C134.976 69.2967 134.719 68.1967 134.719 66.95C134.719 65.718 134.983 64.6327 135.511 63.694C136.054 62.7407 136.787 62.0147 137.711 61.516C138.635 61.0027 139.669 60.746 140.813 60.746C141.957 60.746 142.991 61.0027 143.915 61.516C144.839 62.0147 145.565 62.7333 146.093 63.672C146.636 64.6107 146.907 65.7033 146.907 66.95C146.907 68.1967 146.629 69.2967 146.071 70.25C145.529 71.1887 144.788 71.9147 143.849 72.428C142.911 72.9413 141.869 73.198 140.725 73.198ZM140.725 71.438C141.444 71.438 142.119 71.2693 142.749 70.932C143.38 70.5947 143.886 70.0887 144.267 69.414C144.663 68.7393 144.861 67.918 144.861 66.95C144.861 65.982 144.671 65.1607 144.289 64.486C143.908 63.8113 143.409 63.3127 142.793 62.99C142.177 62.6527 141.51 62.484 140.791 62.484C140.058 62.484 139.383 62.6527 138.767 62.99C138.166 63.3127 137.682 63.8113 137.315 64.486C136.949 65.1607 136.765 65.982 136.765 66.95C136.765 67.9327 136.941 68.7613 137.293 69.436C137.66 70.1107 138.144 70.6167 138.745 70.954C139.347 71.2767 140.007 71.438 140.725 71.438Z" fill="#1F1F1F"/>
<path d="M49.548 35.252C49.548 37.34 48.828 39.08 47.388 40.472C45.972 41.84 43.8 42.524 40.872 42.524H36.048V53H32.772V27.908H40.872C43.704 27.908 45.852 28.592 47.316 29.96C48.804 31.328 49.548 33.092 49.548 35.252ZM40.872 39.824C42.696 39.824 44.04 39.428 44.904 38.636C45.768 37.844 46.2 36.716 46.2 35.252C46.2 32.156 44.424 30.608 40.872 30.608H36.048V39.824H40.872ZM68.4517 47.42H57.5077L55.4917 53H52.0357L61.1077 28.052H64.8877L73.9237 53H70.4677L68.4517 47.42ZM67.5157 44.756L62.9797 32.084L58.4437 44.756H67.5157ZM81.0815 27.908V43.784C81.0815 46.016 81.6215 47.672 82.7015 48.752C83.8055 49.832 85.3295 50.372 87.2735 50.372C89.1935 50.372 90.6935 49.832 91.7735 48.752C92.8775 47.672 93.4295 46.016 93.4295 43.784V27.908H96.7055V43.748C96.7055 45.836 96.2855 47.6 95.4455 49.04C94.6055 50.456 93.4655 51.512 92.0255 52.208C90.6095 52.904 89.0135 53.252 87.2375 53.252C85.4615 53.252 83.8535 52.904 82.4135 52.208C80.9975 51.512 79.8695 50.456 79.0295 49.04C78.2135 47.6 77.8055 45.836 77.8055 43.748V27.908H81.0815ZM105.446 50.336H114.23V53H102.17V27.908H105.446V50.336ZM132.542 47.42H121.598L119.582 53H116.125L125.198 28.052H128.978L138.014 53H134.558L132.542 47.42ZM131.606 44.756L127.07 32.084L122.534 44.756H131.606Z" fill="#1F1F1F"/>
</svg>
